<svg id="Layer_1" enable-background="new 0 0 503.889 503.889" height="512" viewBox="0 0 503.889 503.889" width="512" xmlns="http://www.w3.org/2000/svg"><path d="m453.727 114.266h-108.576v-43.751c0-20.832-16.948-37.779-37.78-37.779h-110.854c-20.832 0-37.78 16.947-37.78 37.779v43.751h-108.575c-27.66 0-50.162 22.503-50.162 50.162v256.563c0 27.659 22.502 50.161 50.162 50.161h403.565c27.659 0 50.162-22.502 50.162-50.161v-256.563c0-27.659-22.503-50.162-50.162-50.162zm-262.99-43.751c0-3.187 2.593-5.779 5.78-5.779h110.854c3.187 0 5.78 2.593 5.78 5.779v43.751h-122.414zm-158.737 93.913c0-10.015 8.147-18.162 18.162-18.162h403.565c10.014 0 18.162 8.147 18.162 18.162v23.681c0 22.212-14.894 42.061-36.22 48.27l-167.345 48.723c-10.715 3.121-22.043 3.121-32.76 0l-167.344-48.724c-21.326-6.209-36.22-26.057-36.22-48.269zm421.727 274.725h-403.565c-10.014 0-18.162-8.147-18.162-18.161v-167.734c8.063 6.232 17.254 10.927 27.274 13.845 184.859 53.822 175.358 52.341 192.67 52.341 17.541 0 7.595 1.544 192.67-52.341 10.021-2.918 19.212-7.613 27.274-13.845v167.733c.001 10.014-8.147 18.162-18.161 18.162z"/></svg>