<svg height="368pt" viewBox="0 0 368 368" width="368pt" xmlns="http://www.w3.org/2000/svg"><path d="m56 320h256c4.414062 0 8-3.585938 8-8v-256c0-4.414062-3.585938-8-8-8h-256c-4.414062 0-8 3.585938-8 8v256c0 4.414062 3.585938 8 8 8zm40.808594-176c3.71875 18.230469 19.871094 32 39.191406 32s35.472656-13.769531 39.191406-32h128.808594v80h-32.808594c-3.71875-18.230469-19.871094-32-39.191406-32s-35.472656 13.769531-39.191406 32h-128.808594v-80zm15.191406-8c0-13.230469 10.769531-24 24-24s24 10.769531 24 24-10.769531 24-24 24-24-10.769531-24-24zm144 96c0 13.230469-10.769531 24-24 24s-24-10.769531-24-24 10.769531-24 24-24 24 10.769531 24 24zm-192 72v-64h128.808594c3.71875 18.230469 19.871094 32 39.191406 32s35.472656-13.769531 39.191406-32h32.808594v64zm240-240v64h-128.808594c-3.71875-18.230469-19.871094-32-39.191406-32s-35.472656 13.769531-39.191406 32h-32.808594v-64zm0 0"/><path d="m40 368h288c22.054688 0 40-17.945312 40-40v-288c0-22.054688-17.945312-40-40-40h-288c-22.054688 0-40 17.945312-40 40v288c0 22.054688 17.945312 40 40 40zm-24-328c0-13.230469 10.769531-24 24-24h288c13.230469 0 24 10.769531 24 24v288c0 13.230469-10.769531 24-24 24h-288c-13.230469 0-24-10.769531-24-24zm0 0"/></svg>