<?xml version="1.0" encoding="iso-8859-1"?>
<!-- Generator: Adobe Illustrator 19.0.0, SVG Export Plug-In . SVG Version: 6.00 Build 0)  -->
<svg version="1.1" id="Layer_1" xmlns="http://www.w3.org/2000/svg" xmlns:xlink="http://www.w3.org/1999/xlink" x="0px" y="0px"
	 viewBox="0 0 512 512" style="enable-background:new 0 0 512 512;" xml:space="preserve">
<g>
	<g>
		<path d="M420.645,129.402C414.208,56.922,353.179,0,279.046,0H110.984c-5.208,0-9.621,3.727-10.346,8.885l-58.74,417.9
			c-0.423,3,0.474,6.112,2.459,8.398c1.985,2.286,4.862,3.673,7.888,3.673h52.341c-4.932,34.185-10.279,60.255-10.33,60.521
			c-0.633,3.071,0.153,6.311,2.138,8.74c1.985,2.439,4.954,3.883,8.097,3.883h107.837c5.194,0,9.602-4.352,10.342-9.495
			l19.622-136.791h90.582c75.725,0,137.331-59.635,137.331-133.586C470.204,191.916,452.154,155.004,420.645,129.402z
			 M120.067,20.898h158.98c66.883,0,121.296,54.592,121.296,121.566c0,66.822-54.413,121.372-121.296,121.372H178.434
			c-5.209,0-9.622,3.653-10.347,8.816l-20.444,145.306H64.266L120.067,20.898z M332.873,344.816H233.24
			c-5.194,0-9.603,4.352-10.342,9.495l-19.623,136.791h-86.128c2.072-10.449,5.179-28.791,8.133-49.281
			c0.148-1.031,0.092-2.964-0.054-2.964h31.497c5.209,0,9.622-3.653,10.347-8.816l20.444-145.306h91.531
			c73.098,0,133.463-55.7,141.306-126.766c18.579,20.524,28.954,46.298,28.954,74.253
			C449.306,294.651,397.077,344.816,332.873,344.816z"/>
	</g>
</g>
<g>
</g>
<g>
</g>
<g>
</g>
<g>
</g>
<g>
</g>
<g>
</g>
<g>
</g>
<g>
</g>
<g>
</g>
<g>
</g>
<g>
</g>
<g>
</g>
<g>
</g>
<g>
</g>
<g>
</g>
</svg>
