<svg id="Layer_1" enable-background="new 0 0 512.256 512.256" height="512" viewBox="0 0 512.256 512.256" width="512" xmlns="http://www.w3.org/2000/svg"><path d="m512.256 315.484v-118.713h-52.036c-4.334-14.931-10.3-29.313-17.824-42.97l36.813-36.813-83.942-83.942-36.813 36.814c-13.657-7.524-28.039-13.49-42.97-17.824v-52.036h-118.713v52.036c-14.931 4.334-29.312 10.3-42.969 17.824l-36.813-36.813-83.942 83.942 36.813 36.813c-7.524 13.657-13.489 28.038-17.823 42.97h-52.037v118.713h52.037c4.334 14.932 10.299 29.313 17.823 42.969l-36.812 36.813 83.942 83.942 36.813-36.813c13.656 7.523 28.038 13.482 42.967 17.816l.003 52.043h118.75v-52.04c14.902-4.33 29.272-10.289 42.933-17.82l36.812 36.813 83.942-83.942-36.813-36.813c7.523-13.656 13.489-28.037 17.823-42.969zm-226.734 23.342v143.43h-58.752l-.007-143.43-8.504-4.086c-30.206-14.513-49.724-45.528-49.724-79.018 0-27.165 12.419-52.162 32.95-68.514v70.874l54.658 32.851 54.658-32.851v-70.874c20.53 16.352 32.949 41.349 32.949 68.514 0 33.489-19.518 64.506-49.724 79.018zm151.261 56.441-41.517 41.517-32.251-32.253-10.124 6.346c-11.823 7.41-24.335 13.392-37.369 17.88v-71.497c15.987-9.359 29.577-22.383 39.654-38.081 12.15-18.929 18.573-40.871 18.573-63.455 0-47.522-28.319-90.108-72.147-108.491l-20.802-8.726v102.606l-24.658 14.819-24.658-14.819v-102.607l-20.802 8.726c-43.828 18.383-72.148 60.969-72.148 108.491 0 22.584 6.423 44.526 18.574 63.455 10.077 15.698 23.668 28.722 39.655 38.081l.004 71.497c-13.063-4.491-25.587-10.473-37.403-17.879l-10.125-6.346-32.251 32.253-41.516-41.517 32.251-32.252-6.345-10.124c-10.813-17.253-18.594-36.014-23.126-55.762l-2.673-11.645h-45.579v-58.713h45.581l2.673-11.645c4.532-19.748 12.313-38.509 23.126-55.763l6.345-10.124-32.251-32.251 41.516-41.517 32.251 32.253 10.124-6.346c17.254-10.814 36.016-18.596 55.762-23.127l11.645-2.673v-45.578h58.713v45.58l11.645 2.673c19.747 4.531 38.508 12.313 55.763 23.127l10.124 6.346 32.251-32.253 41.517 41.517-32.255 32.25 6.346 10.124c10.814 17.255 18.596 36.016 23.127 55.763l2.673 11.645h45.58v58.713h-45.58l-2.673 11.645c-4.532 19.747-12.313 38.508-23.127 55.762l-6.346 10.124z"/></svg>